<svg width="22" height="13" viewBox="0 0 22 13" fill="none" xmlns="http://www.w3.org/2000/svg">
<path fill-rule="evenodd" clip-rule="evenodd" d="M20.8439 0.857868C20.9922 0.363419 20.8439 0 20.138 0H17.8042C17.2107 0 16.9373 0.313906 16.7889 0.660154C16.7889 0.660154 15.602 3.553 13.9206 5.4321C13.3766 5.97606 13.1294 6.14894 12.8327 6.14894C12.6843 6.14894 12.4696 5.97606 12.4696 5.48161V0.857868C12.4696 0.264396 12.2974 0 11.8028 0H8.13523C7.76448 0 7.54143 0.275398 7.54143 0.536459C7.54143 1.09909 8.38196 1.22879 8.46864 2.81116V6.24813C8.46864 7.00164 8.33261 7.13833 8.03588 7.13833C7.24469 7.13833 5.32024 4.23232 4.17864 0.907379C3.95492 0.261061 3.73054 0 3.13406 0H0.800187C0.133364 0 0 0.313906 0 0.660154C0 1.2783 0.791351 4.34435 3.68419 8.39929C5.61298 11.1683 8.32995 12.6696 10.8025 12.6696C12.2862 12.6696 12.4696 12.3362 12.4696 11.7619V9.66892C12.4696 9.0021 12.6101 8.86907 13.0797 8.86907C13.4261 8.86907 14.0194 9.04211 15.4043 10.3773C16.9866 11.9595 17.2474 12.6696 18.1376 12.6696H20.4714C21.1383 12.6696 21.4717 12.3362 21.2793 11.6782C21.0689 11.0224 20.3134 10.0712 19.3108 8.94325C18.7669 8.30027 17.9509 7.60794 17.7038 7.26186C17.3576 6.81676 17.4564 6.61905 17.7038 6.22362C17.7038 6.22362 20.5471 2.21802 20.8439 0.858034V0.857868Z" fill="#123D4B"/>
</svg>
