<svg width="20" height="14" viewBox="0 0 20 14" fill="none" xmlns="http://www.w3.org/2000/svg">
<path fill-rule="evenodd" clip-rule="evenodd" d="M17.8253 0.428334C18.682 0.658976 19.3574 1.33443 19.5881 2.19109C20.0164 3.75616 19.9999 7.01809 19.9999 7.01809C19.9999 7.01809 19.9999 10.2635 19.5881 11.8286C19.3574 12.6853 18.682 13.3607 17.8253 13.5914C16.2602 14.0032 9.99996 14.0032 9.99996 14.0032C9.99996 14.0032 3.75616 14.0032 2.17462 13.5749C1.31795 13.3443 0.642501 12.6688 0.41186 11.8121C0 10.2635 0 7.00162 0 7.00162C0 7.00162 0 3.75616 0.41186 2.19109C0.642501 1.33443 1.33443 0.642501 2.17462 0.41186C3.73969 0 9.99996 0 9.99996 0C9.99996 0 16.2602 0 17.8253 0.428334ZM13.2122 7.00154L8.00634 9.99988V4.0032L13.2122 7.00154Z" fill="#123D4B"/>
</svg>
